<svg height="512pt" viewBox="-33 0 512 512.00134" width="512pt" xmlns="http://www.w3.org/2000/svg"><path d="m251.300781 88.9375c-.289062 0-.578125-.007812-.871093-.027344-2.140626-.132812-4.261719-.710937-6.140626-1.675781-1.933593-1.007813-3.519531-2.378906-4.609374-3.96875-1.773438-2.59375-2.175782-5.640625-1.164063-8.816406 1.457031-4.589844 5.449219-8.609375 10.425781-10.496094 1.332032-.492187 3.402344-1.078125 5.761719-1.078125 2.476563 0 4.773437.628906 6.832031 1.867188 6.824219 4.128906 6.292969 9.757812 5.363282 12.746093-1.761719 5.628907-8.074219 11.449219-15.597657 11.449219zm0 0" fill="#fff"/><path d="m192.019531 88.9375c-.289062 0-.578125-.007812-.867187-.027344-2.15625-.136718-4.28125-.714844-6.148438-1.679687-1.917968-.992188-3.507812-2.363281-4.605468-3.964844-1.769532-2.570313-2.179688-5.621094-1.175782-8.808594 1.472656-4.605469 5.472656-8.625 10.441406-10.503906 1.328126-.492187 3.398438-1.078125 5.761719-1.078125 2.476563 0 4.773438.628906 6.828125 1.867188 6.835938 4.144531 6.289063 9.769531 5.351563 12.75-1.746094 5.625-8.054688 11.445312-15.585938 11.445312zm0 0" fill="#fff"/><path d="m214.8125 315.09375c-21.835938 0-40.976562-1.492188-58.507812-4.570312-12.0625-2.113282-25.429688-5.625-33.109376-15.621094-7.296874-9.507813-7.691406-22.632813-7.453124-36.382813v-.097656c.242187-13.988281.492187-28.449219 4.167968-42.109375 4.039063-15.023438 12.027344-27.019531 22.496094-33.769531 10.8125-6.957031 24.351562-8.621094 36.195312-9.628907 12.070313-1.023437 24.386719-1.539062 36.605469-1.539062 1.953125 0 3.902344.011719 5.851563.039062 28.21875.402344 52.125 2.78125 73.082031 7.273438 16.308594 3.496094 28.019531 21.726562 33.089844 36.277344 4.609375 13.214844 5.980469 28.304687 4.191406 46.128906-1.882813 18.875-7.328125 31.878906-16.640625 39.746094-10.65625 9.003906-25.644531 10.707031-41.355469 11.769531-21.921875 1.492187-40.277343 2.484375-58.613281 2.484375zm-3.539062-113.554688c-9.886719 0-19.871094.292969-29.675782.871094-9.523437.570313-21.148437 2.347656-26.546875 11.078125-3.6875 5.972657-3.257812 13.554688-2.945312 19.09375l1.492187 26.378907c.304688 5.421874.722656 12.796874 5.113282 18.027343 4.640624 5.535157 12.128906 7.039063 18.78125 8.019531 18.257812 2.683594 36.910156 4.046876 55.4375 4.046876 7.101562 0 14.351562-.207032 21.546874-.617188 8.605469-.484375 18.40625-1.472656 25.855469-7.125 6.222657-4.734375 10.417969-12.542969 11.808594-21.988281 1.222656-8.234375.308594-16.492188-.578125-24.476563-.652344-5.828125-1.386719-12.359375-4.527344-17.976562-7.328125-13.128906-25.800781-13.722656-39.289062-14.15625l-1.222656-.042969c-1.742188-.0625-3.394532-.121094-4.933594-.222656-10-.605469-20.203125-.910157-30.316406-.910157zm0 0" fill="#ed6d66"/><path d="m239.675781 144.238281c-24.390625 0-49-1.144531-73.152343-3.402343-6.574219-.617188-13.921876-1.679688-17.90625-6.507813-4.308594-5.230469-3.488282-13.234375-2.382813-20.320313 1.707031-10.839843 3.6875-22.308593 7.472656-32.90625 4.160157-11.675781 10.066407-21.003906 17.558594-27.714843 12.039063-10.796875 27.457031-14.253907 38.273437-15.253907 3.894532-.359374 7.890626-.539062 11.867188-.539062 37.308594 0 55.375 14.859375 63.960938 27.328125 8.828124 12.832031 13.183593 28.589844 16.273437 42.3125 1.242187 5.5 2.324219 10.890625 1.988281 16.363281-.222656 3.394532-1.285156 9.714844-5.949218 13.972656-5.097657 4.664063-12.855469 5.402344-20.363282 5.761719-12.441406.597657-25.105468.90625-37.640625.90625zm-13.367187-42.152343c-1.542969 0-3.09375.015624-4.652344.046874-9.371094.21875-18.753906.953126-27.890625 2.175782-3.347656.4375-6.589844.976562-9.503906 2.707031-3.613281 2.144531-5.714844 5.835937-5.351563 9.40625.46875 4.667969 4.59375 8.128906 11.929688 10.015625 11.746094 3.03125 23.917968 4.566406 36.179687 4.566406 9.207031 0 18.410157-.875 27.351563-2.601562 6.523437-1.261719 15.339844-3.972656 16.722656-12.960938.847656-5.5625-1.785156-9.550781-7.414062-11.230468-3.914063-1.167969-8.058594-1.214844-12.074219-1.265626-1.550781-.019531-3.15625-.039062-4.667969-.132812-5.988281-.359375-13.125-.726562-20.628906-.726562zm28.347656-43.261719c-2.390625 0-4.789062.449219-7.140625 1.332031-6.203125 2.335938-11.015625 7.222656-12.878906 13.066406-1.382813 4.347656-.78125 8.734375 1.691406 12.339844 2.929687 4.277344 8.101563 7.042969 13.84375 7.394531.378906.03125.726563.039063 1.078125.039063 8.59375 0 16.984375-6.148438 19.519531-14.296875 2.191407-7.019531-.40625-13.371094-7.132812-17.433594-2.644531-1.597656-5.75-2.441406-8.980469-2.441406zm-59.289062 0c-2.386719 0-4.785157.449219-7.132813 1.332031-6.210937 2.339844-11.023437 7.222656-12.878906 13.0625-1.378907 4.351562-.777344 8.738281 1.6875 12.347656 2.933593 4.273438 8.113281 7.039063 13.851562 7.394532.378907.027343.726563.035156 1.078125.035156 8.582032 0 16.976563-6.148438 19.519532-14.296875 2.1875-7.015625-.414063-13.367188-7.144532-17.429688-2.644531-1.601562-5.75-2.445312-8.980468-2.445312zm0 0" fill="#ed6d66"/><path d="m242.527344 106.632812 4.160156.234376c1.589844.097656 3.238281.117187 4.835938.136718 3.789062.054688 7.65625.105469 10.984374 1.09375 3.746094 1.121094 5.113282 3.128906 4.570313 6.714844-.988281 6.394531-7.722656 8.492188-13.480469 9.605469-2.863281.550781-5.878906 1.023437-9.21875 1.441406l-2.300781.285156zm0 0" fill="#cbe580"/><path d="m226.980469 126.929688c-3.351563 0-6.75-.121094-10.09375-.359376l-1.84375-.132812-.125-19.976562 1.925781-.082032c1.636719-.074218 3.273438-.140625 4.910156-.171875 1.53125-.042969 3.070313-.0625 4.605469-.0625 2.992187 0 6.214844.066407 10.144531.210938l1.972656.074219-.480468 20.082031-1.824219.117187c-3.042969.199219-6.132813.300782-9.191406.300782zm0 0" fill="#cbe580"/><path d="m208.703125 125.75c-5.707031-.746094-11.375-1.835938-16.851563-3.238281-5.46875-1.414063-8.628906-3.722657-8.902343-6.503907-.199219-1.96875 1.164062-4.183593 3.390625-5.503906 2.257812-1.335937 5.058594-1.789062 7.96875-2.171875 4.667968-.621093 9.515625-1.125 14.410156-1.492187l2.140625-.160156.117187 19.363281zm0 0" fill="#cbe580"/><path d="m386.863281 402.261719c-2.570312 0-4.984375-.921875-6.621093-2.527344-3.542969-3.460937-3.953126-11.921875-3.882813-19.742187v-.117188c.054687-5.015625 1.015625-12.207031 5.28125-17.988281 4.808594-6.511719 13.585937-10.644531 24.078125-11.347657 1.035156-.066406 2.074219-.101562 3.09375-.101562 7.714844 0 14.507812 1.929688 19.644531 5.578125 5.863281 4.167969 9.941407 10.835937 11.1875 18.300781 1.191407 7.125-.183593 14.765625-3.878906 21.511719-1.390625 2.539063-2.765625 4.207031-4.320313 5.234375-1.089843.71875-2.328124 1.113281-3.496093 1.113281-.699219 0-1.339844-.140625-1.902344-.421875-2.539063-1.277344-3.148437-5.007812-2.628906-8.136718.238281-1.382813.609375-2.734376 1.003906-4.164063.671875-2.433594 1.367187-4.949219 1.347656-7.65625-.042969-7.351563-6.015625-14.054687-13.3125-14.945313-.542969-.066406-1.101562-.101562-1.65625-.101562-6.816406 0-13.210937 4.90625-14.871093 11.410156-.816407 3.203125-.527344 6.609375-.273438 9.613282l.007812.113281c.3125 3.710937.605469 7.210937-.890624 10.082031-1.164063 2.210938-3.441407 3.726562-6.253907 4.164062-.546875.082032-1.101562.128907-1.65625.128907zm0 0" fill="#f9d889"/><path d="m336.199219 249.53125c.289062-13.425781-1.394531-25.167969-5.136719-35.898438-3.453125-9.921874-9.207031-19.613281-15.785156-26.585937l-2.007813-2.125 2.707031-1.101563c5.0625-2.050781 10.710938-3.136718 16.339844-3.136718 5.28125 0 10.375.910156 15.140625 2.710937 10.625 4.027344 19.667969 12.652344 24.199219 23.074219 4.585938 10.550781 3.929688 22.421875-1.667969 30.238281-6.695312 9.34375-19.066406 12.652344-31.441406 14.835938l-2.398437.421875zm0 0" fill="#f9d889"/><path d="m304.984375 103.636719c-1.640625-7.019531-4.332031-17.507813-8.78125-27.476563l-.949219-2.128906 2.25-.617188c1.441406-.394531 2.953125-.597656 4.480469-.597656 3.894531 0 7.628906 1.28125 10.519531 3.609375 5 4.035157 7.308594 11.175781 5.617188 17.375-1.394532 5.070313-5.414063 9.382813-10.496094 11.257813l-2.125.785156zm0 0" fill="#f9d889"/><path d="m234.621094 503.953125c-.496094-10.300781-.378906-16.5 7.835937-24.144531 7.605469-7.078125 17.808594-11.144532 27.992188-11.152344 14.996093.125 29.445312 9.265625 35.980469 22.746094 1.332031 2.730468 1.9375 4.914062 1.898437 6.859375-.015625 2.210937-1.011719 4.261719-2.542969 5.199219-1.496094.910156-3.589844.949218-5.4375.984374l-65.632812 1.453126zm0 0" fill="#f9d889"/><path d="m232.964844 284.988281c-3.585938 0-7.230469-.050781-10.839844-.152343l-1.894531-.054688-.648438-24.960938 27.941407-1.75c1.121093-.070312 1.976562-1.042968 1.910156-2.167968-.066406-1.074219-.945313-1.894532-2.039063-1.894532l-.128906.003907-27.777344 1.738281-.4375-16.441406c-.023437-1.117188-.917969-1.984375-2.035156-1.984375-1.160156.03125-2.050781.964843-2.027344 2.085937l1.179688 45.210938-2.15625-.109375c-11.984375-.601563-24.074219-1.785157-35.929688-3.519531-5.914062-.875-12.535156-2.179688-16.253906-6.613282-.621094-.738281-1.167969-1.601562-1.722656-2.71875l-1.367188-2.769531 37.910157-1.394531c1.117187-.039063 1.992187-.988282 1.953124-2.109375-.039062-1.078125-.9375-1.957031-2.007812-1.957031l-35.96875 1.324218c-.050781.003906-.128906.019532-.207031.03125l-2.230469.351563-.21875-2.09375c-.148438-1.445313-.242188-2.925781-.316406-4.308594l-1.488282-26.378906c-.371093-6.484375-.449218-12.21875 2.347657-16.726563 4.398437-7.109375 14.261719-8.621094 23.328125-9.160156 1.191406-.070312 2.378906-.128906 3.566406-.1875l3.667969-.1875.816406 19.523438-15.195313.792968c-1.117187.0625-1.984374 1.023438-1.929687 2.144532.0625 1.070312.953125 1.917968 2.035156 1.917968l15.25-.804687.585938 13.820312c.046875 1.089844.933593 1.945313 2.023437 1.945313h.167969c.460937-.019532.960937-.253906 1.328125-.652344s.554688-.921875.535156-1.46875l-1.566406-37.375 2.019531-.0625c5.382813-.175781 10.832031-.261719 16.199219-.261719 8.027344 0 16.113281.195313 24.03125.582031l2.171875.105469-.285156 2.15625c-.015625.109375-.03125.226563-.023438.34375l1.039063 25.007813c.046875 1.089844.9375 1.945312 2.03125 1.945312h.171875c1.035156-.042968 1.90625-.996094 1.859375-2.121094l-1.128906-27.121093 2.175781.09375c1.359375.058593 2.746093.117187 4.214843.160156 13.238282.4375 29.6875.980469 35.882813 12.082031 2.304687 4.128906 3.148437 9.035156 3.722656 13.726563l.328125 2.699219-2.679687-.492188c-.167969-.03125-.324219-.046875-.476563-.046875l-16.070312.398437c-.546875.011719-1.046875.234376-1.417969.628907-.375.394531-.574219.910156-.5625 1.457031.023437 1.089844.9375 1.976562 2.03125 1.976562l16.171875-.398437c.253906-.003906.5-.0625.765625-.171875l2.488281-1.027344.265625 2.679688c.558594 5.597656 1.003907 12.164062.078125 18.449218-.726562 4.867188-3.023437 13.847657-10.257812 19.351563-1.496094 1.128906-3.15625 2.085937-5.085938 2.921875l-2.761718 1.195312-.253907-22.296874c-.015625-1.101563-.925781-2.003907-2.03125-2.003907-1.148437.011719-2.050781.933594-2.039062 2.0625l.28125 23.136719-1.6875.285156c-3.539063.59375-7.234375.847656-10.054688 1.003906-6.988281.402344-14.148437.605469-21.273437.605469zm0 0" fill="#f9d889"/><path d="m228.550781 352.03125c-6.53125 0-13.25-1.417969-19.96875-4.210938-7.082031-2.9375-12.46875-6.746093-16.011719-11.320312-3.820312-4.921875-5.515624-11.058594-4.539062-16.414062l.320312-1.742188 1.769532.105469c7.875.46875 16.179687.707031 24.679687.707031 12.695313 0 26.589844-.484375 43.71875-1.519531l1.699219-.101563.371094 1.660156c2.660156 11.789063-5.390625 23.894532-14.710938 28.789063-5.09375 2.683594-10.925781 4.042969-17.324218 4.042969h-.003907zm0 0" fill="#f9d889"/><path d="m235.632812 34.339844c-4.632812-.53125-9.460937-.800782-14.351562-.800782-3.992188 0-7.988281.175782-11.882812.527344l-1.515626.136719-.535156-1.425781c-1.859375-4.964844-1.640625-10.738282.585938-15.449219 2.496094-5.285156 7.585937-9.414063 13.28125-10.769531 1.417968-.335938 2.871094-.503906 4.320312-.503906 2.851563 0 5.597656.652343 7.945313 1.890624 4.132812 2.179688 7.25 6.378907 8.140625 10.957032.886718 4.589844-.433594 9.644531-3.445313 13.203125-.167969.207031-.304687.472656-.386719.777343l-.453124 1.65625zm0 0" fill="#f9d889"/><path d="m145.65625 504.445312c-1.839844-.035156-3.933594-.074218-5.425781-.980468-1.527344-.941406-2.53125-2.984375-2.558594-5.214844-.027344-1.941406.578125-4.117188 1.898437-6.84375 6.535157-13.484375 20.988282-22.625 35.972657-22.75 10.203125.007812 20.40625 4.074219 28.007812 11.15625 8.21875 7.652344 8.335938 13.847656 7.835938 24.140625l-.09375 1.945313zm0 0" fill="#f9d889"/><path d="m140.910156 110.542969c-6.015625-.183594-11.796875-3.828125-14.394531-9.070313-3.09375-6.285156-1.527344-14.585937 3.644531-19.3125 2.902344-2.648437 6.953125-4.164062 11.109375-4.164062 2.378907 0 4.738281.503906 6.820313 1.449218l1.636718.742188-.566406 1.710938c-3.070312 9.214843-4.863281 18.804687-6.214844 26.972656l-.285156 1.726562zm0 0" fill="#f9d889"/><path d="m108.09375 249.199219c-12.476562 0-24.6875-9.144531-28.414062-21.265625-3.910157-12.714844 1.25-28.03125 12.269531-36.421875 6.289062-4.789063 14.484375-7.429688 23.074219-7.429688 4.457031 0 8.8125.707031 12.945312 2.097657l2.75.925781-1.84375 2.238281c-5.757812 7.003906-10.21875 15.96875-12.894531 25.917969-2.992188 11.136719-3.722657 22.386719-4.042969 31.929687l-.058594 1.78125-1.777344.144532c-.660156.054687-1.335937.082031-2.007812.082031zm0 0" fill="#f9d889"/><path d="m61.394531 409.066406c-.921875 0-1.789062-.191406-2.578125-.566406-4.820312-2.289062-4.664062-10.097656-4.5-12.4375.054688-.765625.121094-1.527344.1875-2.292969l.015625-.175781c.433594-4.824219.925781-10.28125-1.789062-14.859375-1.820313-3.078125-4.9375-5.253906-8.777344-6.117187-1.246094-.289063-2.519531-.433594-3.792969-.433594-3.386718 0-6.726562.984375-9.398437 2.765625-5.929688 3.957031-9.675781 11.332031-10.273438 20.238281-.058593.816406-.089843 1.632812-.117187 2.449219-.066406 1.960937-.140625 4.1875-.707032 6.152343-.734374 2.546876-2.492187 4.476563-4.375 4.796876-.203124.035156-.402343.050781-.609374.050781-1.710938 0-3.578126-1.148438-4.753907-2.929688-1.417969-2.113281-1.941406-4.84375-2.355469-7.460937-.902343-5.730469-1.40625-11.539063-1.496093-17.261719-.074219-5.226563.230469-11.1875 3.066406-15.78125 3.328125-5.40625 10.015625-8.929687 19.871094-10.476563 5.5-.859374 11.128906-1.316406 16.277343-1.316406 9.339844 0 21.421876 1.496094 25.925782 8.625 7.832031 12.398438 7.996094 28.945313.398437 40.234375-2.289062 3.386719-6.332031 6.796875-10.21875 6.796875zm0 0" fill="#f9d889"/><g fill="#939baa"><path d="m388.175781 348.273438c-.613281-4.910157-1.503906-9.863282-2.640625-14.722657l-.375-1.59375 1.488282-.679687c10.695312-4.886719 22.566406-7.847656 34.332031-8.558594l1.855469-.113281.246093 1.84375c.992188 7.375 1.335938 14.746093 1.023438 21.914062l-.109375 2.589844-2.476563-.769531c-3.878906-1.199219-8.144531-1.804688-12.671875-1.804688-1.121094 0-2.261718.035156-3.394531.113282-5.230469.339843-10.105469 1.472656-14.5 3.371093l-2.445313 1.054688zm0 0"/><path d="m383.480469 325.757812c-1.324219-4.507812-2.902344-9.023437-4.691407-13.417968l-.746093-1.835938 1.828125-.765625c11.175781-4.660156 21.695312-10.695312 31.273437-17.9375l.078125-.085937 2.128906-2.140625 1.140626 2.796875c3.160156 7.753906 5.589843 15.8125 7.21875 23.960937l.449218 2.230469-2.273437.15625c-11.488281.789062-23.136719 3.664062-33.679688 8.308594l-2.082031.914062zm0 0"/><path d="m375.601562 305.046875c-4.039062-8.558594-8.929687-16.738281-14.539062-24.3125l-1.71875-2.320313 2.78125-.792968c11.324219-3.21875 21.871094-9.148438 30.496094-17.144532 0 0 .03125-.042968.070312-.085937l.179688-.203125 1.589844-1.726562 1.453124 1.847656c6.042969 7.695312 11.246094 16.109375 15.472657 25.007812l1.242187 2.613282-2.886718.238281c-.269532.023437-.671876.105469-1.039063.386719-9.363281 7.078124-19.632813 12.960937-30.527344 17.488281l-1.761719.730469zm0 0"/><path d="m355.828125 274.085938c-4.667969-5.582032-9.757813-10.796876-15.125-15.507813l-3.085937-2.707031 4.03125-.761719c11.105468-2.101563 23.46875-5.542969 30.925781-15.121094l1.234375-1.59375 1.582031 1.25c5.480469 4.332031 10.648437 9.214844 15.363281 14.511719l1.664063 1.867188-2.1875 1.210937c-.136719.074219-.257813.160156-.375.273437-8.695313 8.054688-19.378907 13.851563-30.894531 16.757813-.183594.042969-.351563.117187-.550782.242187l-1.472656.910157zm0 0"/><path d="m244.539062 363.332031-.089843-10.175781 1.195312-.535156c.773438-.347656 1.472657-.6875 2.132813-1.035156 11.9375-6.277344 19.078125-19.78125 16.980468-32.117188l-.371093-2.179688 4.621093-.3125c1.5625-.101562 3.125-.207031 4.691407-.316406 5.234375-.347656 9.183593-.707031 12.800781-1.160156l2.269531-.285156-.425781 49.261718zm0 0"/><path d="m244.5625 367.402344 43.746094 1.132812-.292969 34.09375-1.746094.425782h-.394531l-41.019531 2.019531zm0 0"/><path d="m244.894531 409.140625 43.085938-2.117187-.285157 32.125-42.558593.804687zm0 0"/><path d="m245.164062 444.023438 42.496094-.808594-.214844 24.949218-2.652343-.957031c-4.695313-1.695312-9.511719-2.574219-14.316407-2.613281-7.625 0-15.269531 2.042969-22.132812 5.914062l-2.957031 1.664063zm0 0"/><path d="m265.265625 169.953125c-13.5625-1.519531-28.003906-2.367187-44.152344-2.597656-1.96875-.027344-3.941406-.042969-5.914062-.042969-11.601563 0-23.390625.472656-35.027344 1.40625l-2.15625.171875-.058594-23.011719 2.15625.160156c19.792969 1.496094 39.847657 2.253907 59.605469 2.253907 8.511719 0 17.421875-.148438 26.484375-.449219l2.175781-.070312-.992187 19.265624c-.003907.125.015625.304688.0625.515626l.566406 2.703124zm0 0"/><path d="m197.9375 362.628906c-10.472656 0-20.917969-1.230468-31.042969-3.660156l-1.492187-.355469-.039063-1.53125c-.359375-13.007812-.980469-26.089843-1.839843-38.871093l-.164063-2.453126 2.433594.335938c5.285156.726562 10.765625 1.324219 16.292969 1.777344l2.117187.175781-.304687 2.101563c-.910157 6.339843 1.082031 13.203124 5.460937 18.839843 3.621094 4.667969 8.890625 8.605469 15.660156 11.695313l1.21875.558594-.417969 11.167968-1.839843.082032c-2.007813.089843-4.039063.136718-6.042969.136718zm0 0"/><path d="m192.363281 398.4375c-8.347656 0-16.753906-.710938-24.988281-2.109375l-1.679688-.289063.015626-1.703124c.089843-9.621094.039062-19.363282-.148438-28.960938l-.050781-2.546875 2.484375.554687c9.882812 2.210938 19.972656 3.332032 29.996094 3.332032 1.597656 0 3.355468-.039063 5.523437-.117188l2.152344-.082031-1.175781 31.4375-1.792969.125c-3.425781.238281-6.902344.359375-10.335938.359375zm0 0"/><path d="m164.59375 433.53125.089844-1.96875c.449218-9.714844.761718-19.492188.917968-29.0625l.039063-2.308594 2.277344.367188c8.097656 1.304687 16.328125 1.964844 24.464843 1.964844 3.1875 0 6.46875-.105469 9.75-.316407l2.210938-.140625-1.269531 33.808594zm0 0"/><path d="m198.777344 471.167969c-7.140625-4.300781-15.171875-6.574219-23.226563-6.574219-3.472656.03125-6.957031.496094-10.375 1.386719l-2.71875.707031.21875-2.800781c.617188-7.796875 1.15625-15.964844 1.609375-24.28125l.105469-2.007813 38.53125 2.339844-1.242187 32.980469zm0 0"/><path d="m87.851562 271.132812c-.179687-.214843-.40625-.398437-.660156-.527343-8.910156-4.488281-16.753906-11.136719-22.675781-19.21875l-.90625-1.238281.964844-1.199219c3.601562-4.476563 7.441406-8.789063 11.410156-12.816407l1.800781-1.828124 1.332032 2.1875c4.941406 8.101562 13.34375 14.109374 22.464843 16.078124l3.300781.710938-2.210937 2.550781c-4.15625 4.808594-8.066406 9.902344-11.625 15.144531l-1.496094 2.203126zm0 0"/><path d="m75.328125 295.011719c-.078125-.039063-.15625-.082031-.238281-.109375-10.402344-3.289063-20.160156-8.875-28.257813-16.160156l-1.167969-1.054688.746094-1.382812c3.859375-7.152344 8.234375-14.097657 13.003906-20.636719l1.554688-2.132813 1.632812 2.070313c6.121094 7.773437 13.996094 14.21875 22.769532 18.632812.113281.054688.261718.109375.390625.144531l2.582031.695313-1.394531 2.277344c-3.234375 5.285156-6.230469 10.90625-8.910157 16.707031l-.867187 1.875zm0 0"/><path d="m66.921875 318.421875c-.207031-.070313-.386719-.105469-.542969-.109375-11.320312-.296875-22.582031-4.195312-31.699218-10.972656l-1.164063-.863282.457031-1.375c2.4375-7.300781 5.332032-14.46875 8.617188-21.304687l1.121094-2.339844 1.976562 1.683594c8.152344 6.953125 17.816406 12.332031 27.949219 15.558594l2.058593.652343-.808593 2c-2.0625 5.109376-3.886719 10.402344-5.414063 15.722657l-.574218 2.003906zm0 0"/><path d="m61.113281 351.148438c-2.625-.6875-5.488281-1.183594-8.519531-1.460938-2.320312-.21875-4.804688-.328125-7.378906-.328125-6.742188 0-12.878906.734375-16.835938 1.351563-.21875.042968-.5.097656-.785156.140624l-2.472656.378907.175781-2.492188c.820313-11.886719 2.890625-23.808593 6.15625-35.433593l.75-2.664063 2.292969 1.542969c9.230468 6.210937 19.976562 9.726562 31.074218 10.164062l2.421876.09375-.558594 2.363282c-1.894532 8.058593-3.183594 16.324218-3.820313 24.566406l-.1875 2.386718zm0 0"/></g><path d="m190.769531 94.957031c.402344.027344.800781.039063 1.199219.039063 9.363281 0 18.625-6.699219 21.433594-15.703125 2.449218-7.84375-.546875-15.222657-8.015625-19.734375-5.183594-3.128906-11.691407-3.59375-17.855469-1.273438-6.773438 2.546875-12.039062 7.902344-14.082031 14.328125-1.574219 4.953125-.882813 9.953125 1.945312 14.078125 3.277344 4.785156 9.027344 7.875 15.375 8.265625zm-9.632812-19.902343c1.28125-4.03125 4.820312-7.566407 9.234375-9.226563 2.257812-.847656 6.664062-1.894531 10.84375.632813 5.386718 3.25 5.414062 7.46875 4.492187 10.429687-1.605469 5.148437-7.578125 10.4375-14.4375 10.019531-3.832031-.238281-7.367187-2.066406-9.222656-4.773437-1.433594-2.09375-1.738281-4.476563-.910156-7.082031zm0 0" fill="#231f20"/><path d="m250.054688 94.957031c.398437.027344.796874.039063 1.195312.039063 9.367188 0 18.625-6.699219 21.433594-15.703125 2.453125-7.84375-.546875-15.222657-8.015625-19.734375-5.179688-3.128906-11.691407-3.59375-17.855469-1.273438-6.773438 2.546875-12.035156 7.902344-14.078125 14.328125-1.574219 4.953125-.882813 9.953125 1.945313 14.078125 3.277343 4.785156 9.023437 7.875 15.375 8.265625zm-9.636719-19.902343c1.28125-4.03125 4.820312-7.566407 9.234375-9.226563 2.257812-.847656 6.664062-1.894531 10.847656.632813 5.386719 3.25 5.414062 7.46875 4.488281 10.429687-1.605469 5.148437-7.5625 10.4375-14.4375 10.019531-3.832031-.238281-7.363281-2.066406-9.21875-4.773437-1.433593-2.09375-1.742187-4.476563-.914062-7.082031zm0 0" fill="#231f20"/><path d="m273.066406 115.742188c1.007813-6.574219-2.203125-11.476563-8.816406-13.449219-4.148438-1.238281-8.457031-1.292969-12.625-1.347657-1.605469-.019531-3.121094-.039062-4.570312-.125-7.492188-.453124-16.367188-.886718-25.445313-.683593-9.378906.214843-18.835937.949219-28.105469 2.183593-3.570312.476563-7.039062 1.0625-10.257812 2.972657-4.285156 2.539062-6.769532 6.988281-6.328125 11.335937.394531 3.882813 3.042969 9.074219 13.421875 11.75 11.9375 3.078125 24.3125 4.625 36.679687 4.625 9.3125 0 18.617188-.875 27.730469-2.632812 4.09375-.792969 16.5625-3.199219 18.316406-14.628906zm-88.125.074218c-.121094-1.179687.894532-2.6875 2.414063-3.589844 1.914062-1.136718 4.402343-1.539062 7.214843-1.914062 4.730469-.628906 9.511719-1.117188 14.300782-1.472656l.089844 14.921875c-5.597657-.726563-11.152344-1.785157-16.609376-3.1875-4.457031-1.152344-7.226562-2.929688-7.410156-4.757813zm32.089844 8.753906-.097656-16.195312c1.621094-.066406 3.242187-.140625 4.859375-.175781 1.527343-.035157 3.050781-.050781 4.566406-.050781 3.433594 0 6.8125.082031 10.070313.207031l-.386719 16.28125c-6.328125.410156-12.683594.386719-19.011719-.066407zm27.09375-.695312.359375-15.128906c.707031.039062 1.40625.082031 2.085937.121094 1.640626.097656 3.324219.121093 4.953126.140624 3.613281.046876 7.347656.09375 10.417968 1.007813 3.109375.929687 3.5 2.246094 3.15625 4.503906-.617187 4.019531-4.28125 6.46875-11.875 7.933594-3.011718.578125-6.046875 1.046875-9.097656 1.421875zm0 0" fill="#231f20"/><path d="m445.625 373.320312c-1.511719-9.050781-6.488281-17.160156-13.65625-22.25-.652344-.464843-1.316406-.890624-1.988281-1.296874 1.464843-21.253907-2.433594-43.128907-11.339844-63.363282-9.136719-20.761718-23.085937-38.8125-40.34375-52.203125-.015625-.011719-.035156-.019531-.046875-.03125 3.675781-8.933593 3.398438-19.921875-1.035156-30.125-5.242188-12.074219-15.304688-21.667969-27.613282-26.324219-12.308593-4.65625-26.203124-4.128906-38.125 1.445313-.414062.195313-.765624.460937-1.078124.761719-4.484376-3.433594-9.496094-6-14.988282-7.175782-7.113281-1.523437-14.558594-2.804687-22.367187-3.855468.230469-.472656.375-.992188.402343-1.550782l.917969-17.824218c1.078125-.046875 2.160157-.085938 3.242188-.136719 8.613281-.414063 17.578125-1.324219 24.164062-7.339844 4.625-4.226562 7.433594-10.644531 7.902344-18.066406.28125-4.378906-.25-8.699219-1.035156-12.875 7.25-2.285156 13.3125-8.359375 15.328125-15.703125.273437-1 .464844-2.015625.589844-3.035156l25.277343-.023438c2.226563 0 4.03125-1.808594 4.03125-4.035156-.003906-2.222656-1.808593-4.027344-4.03125-4.027344-.003906 0-.003906 0-.003906 0l-25.75.023438c-1.160156-4.898438-3.859375-9.449219-7.769531-12.601563-6.015625-4.84375-14.640625-6.1875-21.914063-3.664062-1.242187-2.238281-2.574219-4.433594-4.039062-6.554688-11.433594-16.605469-28.765625-24.308593-45.101563-27.648437.121094-.492188.160156-1.007813.082032-1.53125 2.367187-4.414063 3.203124-9.605469 2.238281-14.5625-1.253907-6.4375-5.464844-12.105469-11.265625-15.160156-4.851563-2.554688-10.859375-3.257813-16.488282-1.921876-7.558593 1.789063-14.050781 7.050782-17.371093 14.074219-2.71875 5.75-3.167969 12.394531-1.371094 18.445313-10.652344 1.933594-23.34375 6.257812-33.859375 15.683594-7.042969 6.308593-12.785156 14.652343-17.125 24.839843-7.917969-3.367187-17.582031-1.894531-24.015625 3.976563-2.777344 2.53125-4.785156 5.738281-5.972656 9.222656-.101563-.007812-.203125-.027344-.308594-.023438l-28.625 1.023438c-2.226563.082031-3.964844 1.949219-3.886719 4.175781.078125 2.175781 1.867188 3.886719 4.027344 3.886719.046875 0 .097656-.003906.144531-.003906l27.417969-.980469c.078125 3.148437.789062 6.285156 2.210938 9.164063 3.511718 7.125 10.863281 11.832031 18.65625 12.414062-.808594 6.292969-1.128907 15.160156 4.199218 21.621094 5.464844 6.625 14.234375 7.957031 22.023438 8.6875 1.972656.183594 3.957031.347656 5.933594.519531l.050781 20.074219c-10.960938 1.199218-22.742188 3.492187-32.820313 9.988281-1.984375 1.273437-3.878906 2.726563-5.691406 4.316406-14.976562-6.503906-32.699219-4.570312-45.164062 4.921875-13.164063 10.03125-19.082032 27.699219-14.398438 42.984375-32.378906 31.78125-52.34375 75.914063-54.792969 121.21875v.019531c-6.941406 2.375-12.011719 6.089844-15.105469 11.113282-3.660156 5.9375-4.0585932 12.964844-3.9648432 19.050781.0937502 6.050781.6250002 12.148437 1.5703122 18.121094.496094 3.132812 1.203125 6.738281 3.304688 9.886719 2.703125 4.054687 7.203125 6.207031 11.4375 5.472656 4.238281-.730469 7.75-4.207032 9.160156-9.078125.765625-2.628907.855469-5.167969.945313-7.625.03125-.753907.054687-1.507813.105468-2.257813.464844-6.910156 3.300782-12.746094 7.585938-15.601562 2.347656-1.566406 5.597656-2.132813 8.480468-1.476563 2.207032.503907 3.949219 1.675781 4.910157 3.300781 1.71875 2.898438 1.355469 6.945313.972656 11.230469-.078125.867188-.152344 1.730469-.214844 2.582031-.632812 8.949219 2.261719 15.632813 7.941407 18.34375 1.726562.824219 3.480468 1.191407 5.214843 1.191407 6.007813 0 11.769531-4.402344 15.210938-9.511719 8.90625-13.214844 8.78125-32.480469-.296875-46.855469-1.625-2.570312-3.921875-4.707031-6.855469-6.417969 2.144531-35.34375 16.417969-69.144531 40.222656-95.335937-.007812.453125-.019531.910156-.027343 1.367187-.253907 14.867188.21875 29.128907 8.703124 40.175782 8.996094 11.71875 24.433594 15.726562 36.875 17.90625.703126.125 1.40625.222656 2.109376.339844 3.375 49.273437 3.085937 99.207031-.875 148.433593-.042969.570313.035156 1.121094.210937 1.628907-9.691406 4.488281-17.902344 12.203124-22.582031 21.859374-1.101563 2.273438-2.558594 5.734376-2.507813 9.570313.058594 4.339844 2.152344 8.289063 5.464844 10.308594 2.871094 1.753906 6.097656 1.824219 8.453125 1.875l67.605469 1.488281h.089843c2.148438 0 3.925782-1.691406 4.027344-3.847656.039063-.855469.082032-1.691406.121094-2.5.589844-11.792969 1.015625-20.3125-9.683594-30.277344-.019531-.015625-.039062-.03125-.058594-.050781.011719-.09375.035157-.183594.039063-.28125l4.476563-119.5c5.542968 1.695312 11.074218 2.546875 16.402343 2.546875 3.394531 0 6.695313-.359375 9.867188-1.042969l.914062 115.855469c.003907.476562.101563.925781.257813 1.347656-.425782.371094-.851563.742188-1.265625 1.125-10.699219 9.960938-10.273438 18.480469-9.6875 30.273438.042969.8125.082031 1.648437.121093 2.503906.097657 2.15625 1.878907 3.847656 4.027344 3.847656h.089844l67.609375-1.488281c2.355469-.050781 5.582031-.121094 8.449219-1.871094 3.316406-2.023437 5.410156-5.972656 5.464844-10.3125.050781-3.835937-1.40625-7.296875-2.507813-9.566406-3.992187-8.238281-10.554687-15.066407-18.410156-19.679688.003906-.074219.023437-.144531.023437-.21875l1.320313-152.6875c8.847656-1.804687 17.007812-4.902343 23.871093-10.703125 10.242188-8.648437 16.308594-22.367187 18.546876-41.863281 25.550781 22.703125 41.957031 54.78125 45.296874 88.855469-2.222656 1.707031-4.171874 3.652344-5.773437 5.820312-4.152344 5.617188-6.386719 13.0625-6.464844 21.535156 0 0-.003906.09375-.003906.09375-.0625 6.886719-.167969 18.410157 5.699219 24.152344 2.808594 2.753906 6.726562 4.265625 10.839844 4.265625.875 0 1.753906-.066406 2.636718-.207031 4.726563-.746094 8.613282-3.417969 10.664063-7.332031 2.332031-4.445313 1.925781-9.210938 1.566406-13.417969-.242187-2.8125-.46875-5.46875.101563-7.71875 1.054687-4.128906 5.691406-7.300781 9.914062-6.785156 4.230469.515625 7.964844 4.707031 7.992188 8.96875.011718 1.859375-.542969 3.871094-1.132813 6-.421875 1.523437-.859375 3.097656-1.140625 4.777344-.824219 4.941406.222656 11.722656 5.890625 14.558593 3.472656 1.738281 7.867187 1.332031 11.472656-1.058593 3.152344-2.09375 5.09375-5.210938 6.28125-7.375 4.34375-7.933594 5.957031-16.960938 4.542969-25.421876zm-25.871094-56.59375c-11.804687.808594-23.523437 3.695313-34.355468 8.464844-1.359376-4.613281-2.949219-9.15625-4.753907-13.609375 11.289063-4.703125 21.953125-10.804687 31.707031-18.191406.109376-.082031.195313-.179687.292969-.269531 3.105469 7.632812 5.492188 15.550781 7.109375 23.605468zm-57.085937-37.183593c11.640625-3.308594 22.429687-9.363281 31.3125-17.597657.136719-.125.242187-.265624.355469-.402343 5.964843 7.59375 11.085937 15.875 15.246093 24.628906-.734375.058594-1.460937.316406-2.09375.792969-9.253906 7.003906-19.367187 12.78125-30.078125 17.234375-4.089844-8.675781-9.035156-16.941407-14.742187-24.65625zm-15.921875-94.273438c10.132812 3.832031 18.757812 12.054688 23.074218 21.992188 4.308594 9.921875 3.734376 21.023437-1.464843 28.28125-6.269531 8.753906-18.089844 11.902343-30.152344 14.027343.289063-13.613281-1.441406-25.671874-5.25-36.597656-3.132813-8.996094-8.660156-19.285156-16.21875-27.296875 9.4375-3.828125 20.503906-4.003906 30.011719-.40625zm-35.496094-107.28125c4.402344 3.546875 6.433594 9.832031 4.9375 15.285157-1.238281 4.523437-4.863281 8.296874-9.257812 9.910156-2.09375-8.960938-4.785157-18.625-8.894532-27.839844 4.484375-1.226562 9.585938-.277344 13.214844 2.644531zm-101.511719-59.804687c2.246094-4.753906 6.824219-8.464844 11.941407-9.675782 3.753906-.890624 7.714843-.449218 10.867187 1.210938 3.605469 1.898438 6.332031 5.566406 7.109375 9.566406s-.371094 8.421875-3.003906 11.535156c-.386719.457032-.644532.984376-.796875 1.535157-10.695313-1.230469-20.300781-.847657-26.632813-.277344-1.660156-4.4375-1.503906-9.621094.515625-13.894531zm-81.425781 82.398437c-2.71875-5.515625-1.34375-12.796875 3.199219-16.945312 4.144531-3.78125 10.652343-4.6875 15.746093-2.371094-2.972656 8.949219-4.800781 18.265625-6.28125 27.277344-5.210937-.160157-10.347656-3.269531-12.664062-7.960938zm21.847656 32.46875c-3.789062-4.59375-2.992187-12.078125-1.945312-18.734375 1.683594-10.734375 3.640625-22.089844 7.371094-32.539062 4.058593-11.375 9.78125-20.429688 17.011718-26.90625 11.640625-10.433594 26.613282-13.777344 37.125-14.746094 15.871094-1.460938 54.855469-1.859375 73.992188 25.933594 8.648437 12.554687 12.925781 28.082031 15.972656 41.613281 1.210938 5.375 2.269531 10.628906 1.941406 15.800781-.195312 3.085938-1.144531 8.832032-5.296875 12.625-4.601562 4.207032-11.964843 4.894532-19.113281 5.238282-36.71875 1.765624-73.902344.925781-110.507812-2.496094-6.175782-.578125-13.054688-1.546875-16.550782-5.789063zm89.5625 17.246094c8.859375 0 17.714844-.15625 26.550782-.453125l-.878907 17.09375c-.019531.355469.023438.695312.09375 1.027344-13.589843-1.523438-28.289062-2.382813-44.347656-2.609375-13.695313-.1875-27.515625.273437-41.132813 1.367187l-.046874-18.6875c19.847656 1.5 39.816406 2.261719 59.761718 2.261719zm-146.566406 42.808594c9.242188-7.039063 22.617188-8.917969 34.175781-5.03125-5.925781 7.199219-10.492187 16.292969-13.28125 26.671875-2.867187 10.667968-3.746093 21.589844-4.113281 32.378906-12.023438.976562-24.664062-7.800781-28.347656-19.777344-3.671875-11.9375 1.195312-26.339844 11.566406-34.242187zm-15.742188 44.425781c5.257813 8.617188 14.09375 14.910156 23.75 16.992188-4.234374 4.890624-8.164062 10.007812-11.773437 15.335937-.34375-.421875-.777344-.777344-1.292969-1.035156-8.664062-4.367188-16.230468-10.800781-21.96875-18.621094 3.550782-4.40625 7.316406-8.636719 11.285156-12.671875zm-1.191406 55.691406c-.179687-.089844-.363281-.179687-.5625-.242187-10.125-3.195313-19.589844-8.617188-27.492187-15.722657 3.824219-7.085937 8.125-13.910156 12.867187-20.414062 6.296875 8 14.335938 14.597656 23.4375 19.179688.25.125.507813.21875.765625.289062-3.335937 5.460938-6.34375 11.109375-9.015625 16.910156zm-8.675781 23.300782c-.355469-.113282-.726563-.199219-1.121094-.207032-10.96875-.292968-21.753906-4.046875-30.554687-10.585937 2.394531-7.191407 5.238281-14.234375 8.523437-21.066407 8.359375 7.132813 18.179688 12.605469 28.636719 15.9375-2.097656 5.207032-3.925781 10.523438-5.484375 15.921876zm2.402344 84.625c-2.621094 3.886718-7.175781 7.027343-10.269531 5.550781-2.929688-1.398438-3.660157-6.339844-3.367188-10.496094.058594-.804687.128906-1.617187.203125-2.433594.457031-5.121093.976563-10.921875-2.066406-16.058593-2.101563-3.546876-5.671875-6.050782-10.054688-7.050782-1.390625-.316406-2.8125-.472656-4.234375-.472656-3.742187 0-7.476562 1.074219-10.511718 3.101562-6.453126 4.300782-10.519532 12.234376-11.160157 21.769532-.054687.832031-.085937 1.667968-.117187 2.503906-.074219 2.054688-.144532 4-.632813 5.675781-.511719 1.765625-1.683593 3.183594-2.78125 3.375-1.039062.171875-2.484375-.683593-3.367187-2.003906-1.195313-1.792969-1.664063-4.28125-2.046875-6.675781-.886719-5.59375-1.378907-11.308594-1.46875-16.980469-.074219-4.925781.191406-10.519531 2.765625-14.695313 3.011718-4.890624 9.230468-8.105468 18.484375-9.554687 15.175781-2.375 34.8125-2.125 40.199219 6.402344 7.421874 11.757812 7.597656 27.402343.425781 38.042969zm-17.167969-53.457032c-9.839844-.914062-19.699219.265625-24.707031 1.046875-.265625.042969-.519531.09375-.78125.136719.8125-11.851562 2.875-23.597656 6.085937-35.027344 9.472656 6.371094 20.691406 10.050782 32.113282 10.492188-1.921876 8.152344-3.21875 16.472656-3.867188 24.878906-2.660156-.707031-5.601562-1.222656-8.84375-1.527344zm134.992188-7.476562c3.839843 4.945312 9.367187 9.066406 16.417968 12.292968l-.296875 7.988282c-12.289062.546875-24.558593-.605469-36.535156-3.472656-.359375-13.011719-.972656-26.003907-1.835937-38.949219 5.453124.746093 10.917968 1.339843 16.394531 1.792969-.976563 6.820312 1.117187 14.234374 5.855469 20.347656zm14.785156 55.871094c-11.640625.808593-23.339844.226562-34.847656-1.730469.085937-9.671875.039062-19.347657-.152344-29.015625 10.007812 2.234375 20.199218 3.375 30.433594 3.375 1.863281 0 3.730468-.050782 5.597656-.125zm-34.957032 6.445312c8.203126 1.324219 16.488282 1.988281 24.785157 1.988281 3.289062 0 6.582031-.105469 9.871093-.3125l-1.109374 29.546875-34.464844-2.09375c.445312-9.699218.753906-19.410156.917968-29.128906zm41.789063 101.320312-63.6875-1.402343c-1.597656-.035157-3.410156-.074219-4.429687-.695313-.933594-.570312-1.578126-1.992187-1.597657-3.53125-.019531-1.621094.519531-3.507812 1.699219-5.949218 6.210938-12.8125 19.949219-21.5 34.1875-21.617188 9.683594.003906 19.386719 3.875 26.632812 10.617188 7.609376 7.085937 7.683594 12.464843 7.195313 22.578124zm-33.84375-41.257812c-.007813 0-.019531 0-.03125 0-3.667969.027344-7.3125.53125-10.84375 1.449219.632813-8.09375 1.171875-16.207031 1.609375-24.332031l34.5625 2.101562-1.035156 27.648438c-7.335938-4.421876-15.800782-6.867188-24.261719-6.867188zm33.800781-116.613281c-6.75-2.804688-11.863281-6.40625-15.203125-10.710938-3.484375-4.492187-5.011719-10.054687-4.140625-14.828125 8.230469.492188 16.492188.714844 24.792969.714844 14.503906 0 29.113281-.636719 43.839844-1.519531 2.359375 10.464843-4.773438 21.902343-13.679688 26.582031-9.828125 5.164062-22.804687 5.078125-35.609375-.238281zm37.558594 65.0625 39.050781-1.917969-.242187 28.0625-38.597656.730469zm39.121094-9.984375c-.039063 0-.078125-.007813-.117188-.003906l-39.066406 1.917968-.261719-33.523437 39.710938 1.039062zm18.609375 91.214844c1.179687 2.4375 1.71875 4.328124 1.699219 5.949218-.019532 1.539063-.664063 2.957032-1.601563 3.53125-1.015625.621094-2.828125.660156-4.429687.695313l-63.683594 1.398437c-.492188-10.113281-.414063-15.488281 7.195312-22.574218 7.242188-6.742188 16.949219-10.613282 26.628906-10.617188 14.242188.117188 27.980469 8.804688 34.191407 21.617188zm-34.144531-29.679688c-.011719 0-.019532 0-.03125 0-8.015626 0-16.035157 2.1875-23.097657 6.175781l-.179687-22.789062 38.460937-.726563-.175781 20.070313c-4.789062-1.730469-9.855469-2.691407-14.976562-2.730469zm15.867187-100.167969-39.84375-1.042969-.054687-6.941406c.761718-.335937 1.511718-.699218 2.246093-1.085937 12.824219-6.738281 20.214844-21.335938 18.027344-34.222657 2.367187-.15625 4.734375-.3125 7.105469-.472656 4.375-.296875 8.695312-.648437 12.910156-1.179687zm43.074219-101.53125c-1.832032 18.335938-7.046875 30.90625-15.941406 38.417969-10.191407 8.609375-24.828126 10.257812-40.195313 11.304688-39.839844 2.703124-78.738281 4.582031-116.648437-2.0625-11.683594-2.046876-24.609376-5.417969-31.871094-14.875-6.898438-8.984376-7.265625-21.742188-7.035156-35.128907.238281-13.894531.484374-28.261719 4.097656-41.710937 3.910156-14.550782 11.601562-26.132813 21.652344-32.613282 10.4375-6.722656 23.6875-8.335937 35.285156-9.316406 13.96875-1.1875 28.183594-1.6875 42.253906-1.492187 28.058594.390625 51.839844 2.753906 72.691406 7.222656 15.496094 3.320313 26.71875 20.921875 31.621094 34.988281 4.503906 12.929688 5.84375 27.738282 4.089844 45.265625zm12.589844-3.824219c12.464843-2.355468 24.546874-6.113281 32.125-15.855468 5.4375 4.296875 10.488281 9.085937 15.117187 14.269531-.269531.152344-.527344.328125-.765625.546875-8.460938 7.84375-18.847656 13.476562-30.035156 16.292969-.402344.101562-.765625.273437-1.105469.480469-4.691406-5.613282-9.8125-10.878907-15.335937-15.734376zm45.457031 76.019532c10.542969-4.816406 22.042969-7.675782 33.617187-8.371094.96875 7.148438 1.324219 14.367188 1.015625 21.550781-6.078125-1.875-12.113281-2.085937-16.792969-1.777343-5.515624.363281-10.644531 1.585937-15.160156 3.535156-.628906-5.03125-1.527344-10.019532-2.679687-14.9375zm46.53125 61.773437c-1.234375 2.25-2.398438 3.6875-3.667969 4.53125-1.148438.761719-2.546875.996094-3.402344.566407-1.53125-.765626-1.941406-3.671876-1.546875-6.019532.210938-1.261718.574219-2.570312.957031-3.957031.707032-2.566406 1.441407-5.21875 1.421876-8.195313-.046876-8.324218-6.8125-15.917968-15.074219-16.925781-8.261719-1.007812-16.652344 4.734375-18.707031 12.800781-.90625 3.566407-.597657 7.195313-.324219 10.394532.304687 3.554687.566406 6.625-.671875 8.988281-.855469 1.632813-2.597656 2.765625-4.78125 3.109375-2.488282.390625-5.011719-.316406-6.578125-1.851562-3.414063-3.34375-3.316407-13.839844-3.273438-18.320313 0 0 0-.085937 0-.09375.042969-4.714844.925781-11.460937 4.886719-16.816406 4.460938-6.039063 12.699219-9.882813 22.601562-10.535157 8.417969-.5625 16.03125 1.253907 21.449219 5.105469 5.429688 3.855469 9.210938 10.054688 10.371094 17.003907 1.117187 6.6875-.183594 13.863281-3.660156 20.214843zm0 0" fill="#231f20"/><path d="m288.785156 215.894531c-7.875-14.097656-27.003906-14.726562-40.972656-15.183593-2.175781-.070313-4.234375-.140626-6.089844-.25-20-1.210938-40.269531-1.226563-60.246094-.042969-10 .59375-22.230468 2.5-28.125 12.019531-4.015624 6.488281-3.566406 14.449219-3.238281 20.257812l1.484375 26.382813c.320313 5.671875.757813 13.441406 5.585938 19.199219 5.097656 6.074218 13.003906 7.679687 20.015625 8.710937 18.417969 2.707031 37.085937 4.066407 55.730469 4.066407 7.230468 0 14.453124-.207032 21.660156-.617188 8.902344-.503906 19.0625-1.542969 26.945312-7.535156 6.640625-5.046875 11.109375-13.316406 12.589844-23.289063 1.257812-8.488281.324219-16.875-.578125-24.988281-.667969-5.972656-1.417969-12.742188-4.761719-18.730469zm-2.636718 42.539063c-.675782 4.5625-2.808594 12.96875-9.492188 18.046875-1.433594 1.09375-3 1.964843-4.660156 2.679687l-.226563-19.285156c-.027343-2.210938-1.828125-3.984375-4.03125-3.984375-.015625 0-.035156 0-.050781 0-2.222656.027344-4.007812 1.851563-3.980469 4.078125l.25 21.441406c-3.207031.539063-6.539062.792969-9.824219.980469-10.625.601563-21.292968.746094-31.949218.441406l-.546875-21.136719 26.019531-1.632812c2.222656-.140625 3.910156-2.054688 3.773438-4.277344-.140626-2.222656-2.039063-3.90625-4.277344-3.769531l-25.722656 1.613281-.375-14.378906c-.054688-2.226562-1.902344-3.976562-4.132813-3.925781-2.226563.054687-3.984375 1.90625-3.925781 4.132812l1.113281 43.050781c-11.96875-.597656-23.90625-1.761718-35.738281-3.5-5.542969-.816406-11.730469-2.011718-15.007813-5.917968-.589843-.699219-1.054687-1.484375-1.460937-2.320313l34.820312-1.277343c2.226563-.078126 3.964844-1.949219 3.882813-4.175782-.082031-2.226562-1.957031-3.96875-4.175781-3.878906l-35.875 1.316406c-.203126.003906-.398438.042969-.59375.082032-.136719-1.351563-.230469-2.757813-.3125-4.214844l-1.484376-26.378906c-.34375-6.148438-.429687-11.5625 2.046876-15.5625 3.917968-6.332032 13.191406-7.707032 21.746093-8.214844 1.730469-.101563 3.46875-.183594 5.203125-.269532l.648438 15.523438-13.21875.695312c-2.222656.117188-3.929688 2.015626-3.816406 4.238282.113281 2.152344 1.894531 3.820312 4.023437 3.820312.074219 0 .144531-.003906.21875-.003906l13.128906-.691406.492188 11.796875c.089843 2.167969 1.875 3.863281 4.027343 3.863281.054688 0 .113282 0 .167969-.003906 2.226563-.09375 3.953125-1.972656 3.859375-4.195313l-1.476562-35.367187c13.339844-.429688 26.75-.324219 40.070312.320312-.027344.226563-.050781.453125-.039062.691406l1.039062 25.007813c.089844 2.167969 1.875 3.867187 4.023438 3.867187.054687 0 .113281-.003906.167968-.003906 2.226563-.09375 3.953126-1.972656 3.863282-4.195312l-1.039063-24.953125c1.367188.0625 2.769531.113281 4.246094.164062 12.71875.417969 28.546875.9375 34.199219 11.058594 2.128906 3.8125 2.917968 8.390625 3.472656 12.984375-.269531-.050781-.550781-.078125-.835938-.074219l-16.121093.394531c-2.222657.054688-3.984375 1.90625-3.929688 4.132813.054688 2.191406 1.847657 3.933594 4.027344 3.933594.035156 0 .066406-.003907.101563-.003907l16.121093-.394531c.527344-.011719 1.023438-.132812 1.480469-.328125.597656 6.023438.949219 12.113282.085938 17.960938zm0 0" fill="#231f20"/></svg>