<?xml version="1.0" standalone="no"?><!-- Generator: Gravit.io --><svg xmlns="http://www.w3.org/2000/svg" xmlns:xlink="http://www.w3.org/1999/xlink" style="isolation:isolate" viewBox="0 0 200 250" width="200" height="250"><defs><clipPath id="_clipPath_OWYx8vvSWCaUhMz8TRrrKiPlJn4c5pSU"><rect width="200" height="250"/></clipPath></defs><g clip-path="url(#_clipPath_OWYx8vvSWCaUhMz8TRrrKiPlJn4c5pSU)"><g><path d=" M 82.281 205.332 C 82.279 200.635 84.145 196.13 87.466 192.809 C 90.787 189.488 95.292 187.622 99.989 187.624 C 104.686 187.622 109.191 189.488 112.512 192.809 C 115.834 196.13 117.699 200.635 117.698 205.332 C 117.695 215.115 99.986 236.317 99.986 236.317 C 99.986 236.317 82.284 215.115 82.281 205.332 Z " fill="rgb(255,61,0)"/><path d=" M 91.14 205.332 C 91.084 202.133 92.759 199.152 95.521 197.536 C 98.283 195.92 101.702 195.92 104.464 197.536 C 107.226 199.152 108.901 202.133 108.845 205.332 C 108.839 210.222 99.999 218.624 99.999 218.624 C 99.999 218.624 91.149 210.237 91.136 205.335 L 91.14 205.332 Z " fill="rgb(255,235,59)"/><path d=" M 73.431 63.685 C 73.422 76.949 73.428 192.053 73.428 192.053 L 126.55 192.053 L 126.547 63.685 C 126.557 56.683 119.188 43.56 112.204 32.688 L 87.768 32.688 C 80.8 43.57 73.425 56.692 73.425 63.685 L 73.431 63.685 Z " fill="rgb(255,0,0)"/><path d=" M 148.695 192.066 L 126.56 183.21 L 126.547 130.081 L 148.692 161.078 L 148.695 192.066 Z  M 51.296 192.053 L 73.431 183.197 L 73.431 130.081 L 51.296 161.068 L 51.296 192.053 Z  M 87.774 32.688 L 112.207 32.685 C 105.943 22.928 99.977 14.977 99.977 14.977 C 99.977 14.977 94.06 22.928 87.774 32.688 Z  M 126.563 192.066 L 117.71 200.918 L 82.284 200.909 L 73.428 192.053 L 126.563 192.066 Z " fill="rgb(0,0,0)"/><path d=" M 106.25 83.983 C 109.709 87.442 109.712 93.042 106.25 96.504 C 102.792 99.962 97.186 99.962 93.728 96.504 C 90.271 93.047 90.271 87.441 93.728 83.983 C 97.191 80.521 102.788 80.521 106.25 83.983 Z  M 106.25 114.967 C 109.708 118.425 109.708 124.031 106.25 127.489 C 102.792 130.947 97.186 130.947 93.728 127.489 C 90.271 124.031 90.271 118.425 93.728 114.967 C 97.186 111.51 102.792 111.51 106.25 114.967 Z  M 106.25 145.952 C 109.712 149.414 109.709 155.014 106.25 158.473 C 102.788 161.936 97.191 161.936 93.728 158.473 C 90.271 155.016 90.271 149.41 93.728 145.952 C 97.186 142.494 102.792 142.494 106.25 145.952 Z " fill="rgb(255,255,255)"/></g></g></svg>